<?xml version="1.0" encoding="utf-8"?>
<!-- Generator: Adobe Illustrator 26.5.0, SVG Export Plug-In . SVG Version: 6.00 Build 0)  -->
<svg version="1.1" id="Layer_1" xmlns="http://www.w3.org/2000/svg" xmlns:xlink="http://www.w3.org/1999/xlink" x="0px" y="0px"
	 viewBox="0 0 1267 187" style="enable-background:new 0 0 1267 187;" xml:space="preserve">
<style type="text/css">
	.st0{fill:#FFFFFF;}
	.st1{fill:#1D1D1B;}
</style>
<g id="tGO8SR_00000101819982182862012320000008220005626294806426_">
	<g>
		<path class="st0" d="M245.55,63.85c0-8.39,0-16.77,0-25.2c23.39,0,46.78,0,70.18,0c0,1.15,0,2.31,0,3.64
			c0.92-1.06,1.48-2.23,2.37-2.58c1.03-0.41,2.34-0.09,3.64-0.09c0,3.98-0.05,7.75,0.02,11.51c0.03,1.63-0.51,2.52-2.24,2.49
			c-0.24,0-0.48,0.2-1.12,0.49c3.25,0,6.02,0,8.79,0c-0.22-0.4-0.45-0.51-0.69-0.51c-1.74,0-2.26-0.93-2.17-2.56
			c0.1-1.91,0.02-3.82,0.02-5.73c0-1.89,0-3.78,0-5.69c1.39,0,2.69-0.32,3.68,0.09c0.91,0.39,1.49,1.56,2.52,2.74
			c-0.18-1.53-0.32-2.66-0.46-3.79c0.74,0,1.49,0,2.23,0c0.25,0.23,0.48,0.64,0.76,0.67c1.91,0.22,2.19,1.45,2.13,3.07
			c-0.08,2.39-0.11,4.78,0.01,7.16c0.1,2.09,0.02,3.93-2.61,4.29c-0.02,0-0.02,0.09-0.06,0.28c2.69,0,5.36,0,8.02,0
			c-0.24-0.41-0.52-0.55-0.8-0.57c-1.4-0.09-1.94-0.93-1.96-2.21c-0.02-1.42,0-2.84,0-4.33c2.82,0,5.48,0,8.23,0
			c0,1.07,0.01,2.02,0,2.97c-0.04,2.51,0.31,3.22-2.64,3.76c-0.05,0.01-0.06,0.18-0.12,0.37c2.72,0,5.39,0,8.07,0
			c-0.21-0.39-0.44-0.52-0.68-0.54c-1.55-0.11-2.05-1.02-2.03-2.46c0.04-3.13,0.02-6.26,0.01-9.39c0-1.19,0.31-2.06,1.67-2.29
			c0.42-0.07,0.77-0.51,1.15-0.78c0.53,0,1.06,0,1.59,0c0.2,0.22,0.41,0.63,0.61,0.63c2.01,0,2.12,1.32,2.1,2.82
			c-0.03,2.82,0,5.64-0.01,8.45c0,2.52-0.01,2.52-2.38,3.22c-0.04,0.01-0.04,0.18-0.09,0.42c4.28,0,8.53,0,12.93,0
			c0.1-1.23,0.2-2.44,0.3-3.66c-0.16-0.04-0.32-0.09-0.47-0.13c-0.23,0.48-0.38,1.03-0.72,1.41c-0.49,0.57-1.06,1.34-1.7,1.44
			c-1.4,0.23-2.86,0.14-4.29,0.06c-0.32-0.02-0.85-0.54-0.86-0.84c-0.08-1.84-0.04-3.69-0.04-5.5c3.95-0.64,4.75-0.39,6.29,2.1
			c0-1.86,0-3.43,0-5c-1.37,3.39-4.1,1.27-6.18,1.9c0-2.27,0-4.3,0-6.41c1.5,0,2.88,0.06,4.25-0.01c1.82-0.1,1.84,1.62,2.47,2.73
			c0.14-0.08,0.28-0.15,0.42-0.23c-0.06-1.14-0.13-2.27-0.19-3.41c50.51,0,101.01,0,151.52,0c0,36.15,0,72.3,0,108.45
			c-82.94,0-165.87,0-248.81,0c0.35-0.1,0.7-0.2,1.04-0.29c3.72-1.01,7.44-2.01,11.16-3.01c0.99-0.26,1.25-0.89,1.21-1.89
			c-0.08-2.07-0.02-4.14-0.02-6.22c0-3.44,0.31-3.85,3.54-4.82c0.28-0.08,0.5-0.4,0.74-0.6c-0.28-0.22-0.57-0.64-0.85-0.64
			c-4.94-0.04-9.88-0.04-14.82,0c-0.33,0-0.66,0.48-0.99,0.73c0.09,0.16,0.18,0.32,0.28,0.48c0.94,0,1.89-0.04,2.83,0.01
			c2.91,0.16,4.05,1.26,4.14,4.13c0.08,2.28,0.05,4.57,0,6.85c-0.01,0.39-0.25,0.98-0.56,1.12c-5.36,2.59-13.3,3.29-18.97-1.83
			c-7.34-6.64-7.35-20.68-0.33-28.02c5.68-5.93,20.92-6.42,23.33,4.83c0.07,0.35,0.71,0.58,1.29,1.02c0-3.99,0-7.47,0-11.06
			c-0.36,0.07-0.75,0.05-0.82,0.18c-0.69,1.4-1.77,1.06-2.87,0.71c-3.77-1.2-7.62-1.83-11.59-1.76c-9.25,0.18-16.67,5.6-19.37,14.26
			c-0.39,1.24-0.69,2.52-1.03,3.78c0-9.57,0-19.14,0-28.71c0.64-0.02,1.27-0.05,1.91-0.05c3.4,0,6.8,0.02,10.2-0.03
			c0.4-0.01,0.8-0.39,1.2-0.6c-0.37-0.18-0.74-0.37-1.12-0.54c-0.09-0.04-0.21,0-0.32-0.01c-3.59-0.1-4.37-0.88-4.38-4.48
			c-0.01-6.69-0.01-13.39,0-20.08c0-0.5,0.06-1,0.11-1.77c0.68,0.67,1.17,1.12,1.62,1.61c7.95,8.49,15.89,16.98,23.87,25.45
			c0.46,0.49,1.22,0.69,2.15,1.19c0-1.05,0-1.57,0-2.1c0-8.4,0-16.79,0-25.19c0-4.38,0-4.36,4.38-4.84
			c0.34-0.04,0.64-0.44,0.96-0.67c-0.09-0.1-0.18-0.21-0.27-0.31c-4.38,0-8.77,0-13.15,0c-0.04,0.19-0.09,0.37-0.13,0.56
			c0.54,0.15,1.07,0.42,1.61,0.45c3.48,0.19,4.14,0.86,4.15,4.35c0,6,0,12.01,0,18.01c0,0.5-0.05,1-0.08,1.73
			c-0.41-0.37-0.64-0.56-0.85-0.78c-7.35-7.81-14.68-15.64-22.07-23.42c-0.51-0.53-1.41-0.93-2.15-0.96
			C250.66,63.78,248.1,63.85,245.55,63.85z M455.6,145.35c-0.12-0.14-0.25-0.29-0.37-0.43c-1.05-0.1-2.11-0.17-3.15-0.3
			c-1.64-0.21-2.73-1.18-2.77-2.79c-0.11-3.86-0.04-7.72-0.04-11.74c1.89,0,3.74-0.09,5.58,0.04c0.93,0.06,2.08,0.25,2.72,0.83
			c3.55,3.2,7.1,6.41,10.4,9.87c4.58,4.81,10.33,5.35,16.53,4.95c-0.29-0.52-0.67-1.02-1.13-1.09c-3.77-0.61-6.86-2.46-9.54-5.09
			c-2.27-2.24-4.49-4.53-6.78-6.75c-1.58-1.54-3.25-2.99-5-4.59c0.68-0.29,1.22-0.48,1.72-0.74c3.67-1.87,6-4.64,6.1-8.96
			c0.1-4.41-2.05-7.34-5.92-9.15c-1.1-0.51-2.26-0.95-3.44-1.21c-7.23-1.55-14.5-0.36-21.76-0.22c-0.26,0-0.51,0.57-0.96,1.11
			c0.71,0.07,0.96,0.11,1.22,0.11c4.16,0.14,4.96,0.98,4.96,5.19c0,5.37,0,10.74,0,16.11c0,3.4,0.03,6.81-0.01,10.21
			c-0.04,2.63-1.03,3.73-3.53,4.05c-0.72,0.09-1.46,0.09-2.19,0.14c-0.1,0.13-0.19,0.26-0.29,0.39c0.33,0.27,0.66,0.77,0.99,0.77
			c5.21,0.05,10.42,0.05,15.63,0C454.9,146.06,455.25,145.6,455.6,145.35z M398.81,144.92c-0.47,1.47,0.6,1.17,1.31,1.17
			c9.88,0.01,19.77,0.01,29.65,0c0.45,0,0.91-0.07,1.39-0.1c0.34-3.08,0.66-6.02,0.99-8.94c-1.38-0.49-1.36,0.53-1.59,1.22
			c-1.37,4.14-2.7,5.38-6.22,5.46c-3.35,0.08-6.7,0.06-10.04,0.01c-2.23-0.04-2.97-0.78-3-3.01c-0.05-4.09-0.02-8.18,0-12.28
			c0-0.29,0.14-0.59,0.23-0.96c3.25,0,6.43,0,9.62,0c3.09,0.01,3.73,0.56,4.38,3.63c0.09,0.41,0.52,0.75,0.79,1.13
			c0.2-0.41,0.57-0.82,0.57-1.23c0.05-2.92,0.06-5.85,0-8.77c-0.01-0.56-0.4-1.11-0.62-1.66c-0.27,0.49-0.66,0.96-0.78,1.48
			c-0.5,2.33-1.33,3.06-3.69,3.07c-2.34,0.01-4.68,0-7.01,0c-1.14,0-2.28,0-3.38,0c0-5.08,0-9.9,0-14.88c3.82,0,7.53,0,11.23,0
			c3.75,0,4.86,0.9,5.67,4.58c0.08,0.36,0.03,0.81,0.22,1.08c0.22,0.3,0.65,0.44,1.27,0.82c-0.19-3.21-0.36-5.94-0.52-8.55
			c-0.2-0.15-0.24-0.2-0.28-0.2c-9.4-0.02-18.81-0.05-28.21-0.02c-0.3,0-0.6,0.59-0.91,0.9c0.92,0.35,1.51,0.31,2.09,0.35
			c3.02,0.23,3.91,1.09,4.09,4.12c0.12,2.01,0.11,4.03,0.11,6.05c-0.02,7.23-0.03,14.45-0.13,21.68c-0.03,2.29-0.99,3.24-3.28,3.55
			C401.45,144.8,400.12,144.83,398.81,144.92z M301.83,145.27c-0.14-0.12-0.27-0.25-0.41-0.37c-1.06-0.09-2.12-0.11-3.17-0.27
			c-2.26-0.34-2.86-1.28-2.12-3.41c0.91-2.6,1.96-5.16,2.85-7.76c0.32-0.92,0.78-1.21,1.73-1.2c3.35,0.05,6.7,0.03,10.04,0.02
			c3.57,0,3.57,0,4.85,3.36c0.75,1.98,1.56,3.95,2.22,5.96c0.63,1.94,0.12,2.73-1.81,3.02c-1.14,0.17-2.3,0.21-3.46,0.3
			c-0.09,0.13-0.18,0.26-0.27,0.4c0.37,0.26,0.73,0.74,1.1,0.74c4.73,0.05,9.46,0.05,14.19,0c0.34,0,0.68-0.53,1.02-0.82
			c-0.09-0.13-0.17-0.26-0.26-0.39c-2.18,0-4.04-0.55-4.95-2.75c-0.32-0.78-0.65-1.57-0.95-2.36c-3.95-10.36-7.89-20.72-11.88-31.06
			c-0.19-0.5-0.73-1.18-1.16-1.22c-1.5-0.15-3.03-0.06-4.47-0.06c0,0.88,0.18,1.6-0.03,2.17c-3.89,10.49-7.84,20.96-11.75,31.44
			c-0.86,2.3-2.25,3.81-4.88,3.84c-0.29,0-0.58,0.4-0.86,0.61c0.29,0.21,0.58,0.61,0.87,0.61c4.2,0.04,8.4,0.04,12.59-0.01
			C301.2,146.05,301.51,145.55,301.83,145.27z M444.65,88.81c-0.11,0.06-0.23,0.11-0.34,0.17c-0.41-0.46-0.82-0.92-1.24-1.36
			c-7.08-7.55-14.16-15.11-21.25-22.65c-0.41-0.44-0.96-1.03-1.47-1.05c-2.74-0.1-5.48-0.05-8.23-0.05
			c-0.07,0.12-0.13,0.25-0.2,0.37c0.26,0.24,0.49,0.59,0.8,0.71c0.38,0.15,0.84,0.09,1.26,0.15c2.64,0.38,2.92,0.7,2.92,3.29
			c0,7.23,0,14.45,0,21.68c0,4.3,0,4.29-4.28,5.14c-0.25,0.05-0.45,0.32-0.67,0.49c0.23,0.22,0.45,0.63,0.68,0.63
			c4.13,0.04,8.27,0.03,12.37,0.03c0.37-1.55-0.69-1.14-1.31-1.16c-3.48-0.12-4.28-0.9-4.35-4.39c0-0.11,0-0.21,0-0.32
			c0-6.75,0-13.49,0.01-20.24c0-0.39,0.06-0.78,0.1-1.17c0.13-0.08,0.25-0.15,0.38-0.23c0.27,0.39,0.49,0.81,0.81,1.15
			c8.05,8.61,16.11,17.21,24.2,25.78c0.49,0.52,1.26,0.78,2.26,1.38c0-1.16,0-1.74,0-2.31c0-8.71,0-17.43,0-26.14
			c0-3.02,0.44-3.49,3.41-3.7c0.37-0.03,0.79,0.08,1.1-0.06c0.31-0.13,0.52-0.5,1.01-1.01c-4.79,0-9.13,0-13.51,0
			c-0.25,1.38,0.75,1.01,1.37,1.05c3.52,0.18,4.16,0.83,4.16,4.32c0.01,5.9,0,11.79,0,17.69C444.65,87.58,444.65,88.19,444.65,88.81
			z M497.21,128.09c-3.26-5.04-6.32-9.83-9.45-14.57c-1.88-2.86-2.02-4.01,1.96-4.34c0.33-0.03,0.62-0.46,0.94-0.7
			c-0.32-0.19-0.63-0.53-0.95-0.53c-4.78-0.03-9.57-0.03-14.35,0c-0.3,0-0.61,0.38-0.91,0.58c0.27,0.24,0.54,0.69,0.81,0.7
			c3.48,0.11,5.4,2.39,7.08,5.02c3.58,5.59,7.16,11.18,10.74,16.77c0.23,0.35,0.55,0.75,0.55,1.12c-0.02,3.29-0.03,6.58-0.19,9.87
			c-0.07,1.43-1.11,2.27-2.48,2.55c-1.08,0.21-2.18,0.29-3.27,0.42c-0.06,0.16-0.12,0.32-0.19,0.49c0.46,0.21,0.91,0.61,1.37,0.61
			c4.78,0.05,9.57,0.05,14.35,0c0.43,0,0.85-0.45,1.28-0.69c-0.42-0.18-0.83-0.5-1.27-0.53c-3.38-0.25-4.4-1.31-4.41-4.7
			c-0.01-2.55-0.05-5.1,0.03-7.65c0.02-0.8,0.23-1.69,0.63-2.38c2.97-5.15,6.04-10.24,9.01-15.4c1.64-2.85,3.66-5.08,7.18-5.41
			c0.3-0.03,0.56-0.47,0.84-0.71c-0.29-0.22-0.57-0.63-0.86-0.63c-4.04-0.04-8.08-0.05-12.12,0.01c-0.33,0-0.65,0.56-1.26,1.12
			c0.81,0.08,1.02,0.1,1.23,0.12c3.51,0.44,3.98,1.37,2.22,4.41c-1.28,2.2-2.57,4.4-3.87,6.59
			C500.35,122.76,498.85,125.31,497.21,128.09z M388.76,97.05c3.58,0.03,6.94-0.78,10.11-2.44c10.29-5.38,12.82-21.38,1.28-28.55
			c-6.7-4.16-16.35-3.92-22.76,0.67c-8.01,5.73-9.42,17.53-2.83,24.53C378.39,95.32,383.26,97.01,388.76,97.05z M363.93,137.23
			c-0.13-0.15-0.26-0.3-0.4-0.45c-0.45,0.31-1,0.54-1.32,0.95c-0.66,0.83-1.19,1.76-1.77,2.65c-1.49,2.26-3.58,3.4-6.3,3.38
			c-2.71-0.02-5.42,0.02-8.13-0.01c-2.12-0.03-2.57-0.53-2.58-2.68c0-8.82,0-17.65,0-26.47c0-4.89,0.28-5.15,5.23-5.3
			c0.45-0.01,0.9-0.42,1.35-0.64c-0.43-0.24-0.85-0.68-1.28-0.69c-4.94-0.05-9.89-0.05-14.83-0.01c-0.46,0-0.93,0.38-1.39,0.58
			c0.46,0.26,0.9,0.71,1.38,0.75c3.36,0.26,4.32,1.22,4.33,4.57c0.01,8.98,0.01,17.97,0,26.95c0,3.05-0.96,3.99-4.01,4.02
			c-0.27,0-0.56-0.07-0.79,0.02c-0.36,0.15-0.68,0.41-1.02,0.62c0.35,0.21,0.69,0.61,1.04,0.61c8.72,0.03,17.44,0.04,26.15,0
			c0.41,0,1.05-0.35,1.19-0.7C361.88,142.67,362.89,139.95,363.93,137.23z M366.29,107.92c-0.42,1.04-0.11,1.34,0.84,1.4
			c3.89,0.27,4.69,1.15,4.69,5.01c0,8.45-0.03,16.9,0.02,25.35c0.02,3.95-0.64,5.32-4.87,5.15c-0.35-0.01-0.72,0.36-1.07,0.56
			c0.33,0.23,0.66,0.66,0.99,0.66c8.77,0.04,17.54,0.04,26.31,0c0.38,0,0.97-0.29,1.1-0.59c1.12-2.74,2.15-5.51,3.21-8.27
			c-0.11-0.13-0.22-0.25-0.34-0.38c-0.45,0.27-1.03,0.45-1.34,0.84c-0.69,0.87-1.25,1.85-1.86,2.78c-1.53,2.34-3.72,3.36-6.49,3.32
			c-2.5-0.03-5,0-7.49-0.01c-2.61-0.01-3.05-0.45-3.05-3.07c-0.01-8.88,0-17.75,0-26.63c0-0.74,0-1.49,0.1-2.23
			c0.18-1.37,0.94-2.24,2.37-2.36c0.95-0.08,1.92-0.04,2.86-0.18c0.47-0.07,0.9-0.42,1.35-0.64c-0.43-0.24-0.85-0.67-1.29-0.69
			c-1.91-0.08-3.83-0.03-5.74-0.03C373.13,107.92,369.69,107.92,366.29,107.92z M301.18,63.55c-0.08,0.78-0.02,1.49-0.24,2.09
			c-3.14,8.5-6.32,16.99-9.51,25.48c-0.81,2.15-1.72,4.2-4.59,4.08c-0.18-0.01-0.38,0.37-0.58,0.57c0.2,0.19,0.41,0.54,0.61,0.54
			c3.56,0.03,7.12,0.03,10.68,0c0.22,0,0.43-0.33,0.65-0.5c-0.23-0.21-0.44-0.56-0.7-0.61c-0.68-0.11-1.38-0.02-2.06-0.12
			c-1.92-0.28-2.46-1.14-1.81-3c0.79-2.25,1.63-4.49,2.52-6.7c0.15-0.37,0.72-0.81,1.1-0.81c3.61-0.06,7.22-0.05,10.84-0.01
			c0.32,0,0.82,0.31,0.94,0.59c1.01,2.51,2.02,5.02,2.89,7.57c0.47,1.38-0.1,2.13-1.55,2.34c-0.78,0.11-1.6,0.03-2.38,0.13
			c-0.28,0.04-0.52,0.35-0.78,0.54c0.25,0.2,0.5,0.57,0.75,0.57c4.09,0.04,8.18,0.04,12.27,0c0.25,0,0.49-0.38,0.73-0.58
			c-0.21-0.19-0.42-0.54-0.62-0.53c-2.62,0.05-3.49-1.8-4.25-3.82c-3.07-8.08-6.16-16.15-9.25-24.22c-1.47-3.85-1.47-3.85-5.54-3.66
			C301.25,63.51,301.2,63.54,301.18,63.55z M487.22,96.33c0.07-0.18,0.14-0.36,0.21-0.55c-0.4-0.21-0.78-0.58-1.19-0.61
			c-1.54-0.13-2.57-0.9-3.19-2.27c-0.28-0.63-0.55-1.26-0.8-1.91c-3.33-8.72-6.64-17.44-10.01-26.15c-0.21-0.53-0.77-1.22-1.25-1.3
			c-1.18-0.19-2.42-0.06-3.26-0.06c-0.36,1.3-0.58,2.4-0.97,3.45c-3.01,8.1-6.05,16.2-9.07,24.29c-0.79,2.12-1.72,4.06-4.49,3.98
			c-0.22-0.01-0.46,0.52-0.97,1.13c1.7,0,2.91,0,4.12,0c2.44,0,4.89,0.02,7.33-0.03c0.31-0.01,0.62-0.36,0.93-0.55
			c-0.3-0.2-0.59-0.51-0.92-0.57c-0.62-0.11-1.28-0.02-1.91-0.11c-1.94-0.25-2.52-1.11-1.89-2.93c0.78-2.25,1.63-4.49,2.55-6.69
			c0.17-0.41,0.79-0.88,1.21-0.89c3.56-0.07,7.12-0.06,10.68-0.01c0.36,0.01,0.91,0.36,1.04,0.68c1,2.45,1.96,4.93,2.85,7.43
			c0.47,1.33-0.09,2.18-1.48,2.39c-0.78,0.12-1.6,0.02-2.38,0.13c-0.31,0.04-0.57,0.41-0.85,0.62c0.27,0.17,0.55,0.49,0.82,0.5
			C478.63,96.34,482.92,96.33,487.22,96.33z M330.88,66.02c0,4.42,0,8.67,0,12.91c0,4.2,0.04,8.4-0.02,12.59
			c-0.03,2.72-0.98,3.58-3.69,3.64c-0.32,0.01-0.66-0.07-0.95,0.02c-0.43,0.13-0.84,0.36-1.25,0.55c0.4,0.2,0.81,0.58,1.21,0.58
			c4.62,0.04,9.25,0.03,13.87,0.02c0.21,0,0.46,0.06,0.63-0.03c0.23-0.13,0.4-0.37,0.6-0.56c-0.2-0.19-0.37-0.46-0.61-0.54
			c-0.29-0.1-0.63-0.03-0.95-0.03c-3.69-0.02-4.47-0.8-4.47-4.5c0-7.6,0-15.2,0-22.8c0-0.58,0-1.15,0-1.93c2.73,0,5.32-0.02,7.91,0
			c2.57,0.02,3.39,0.64,4.15,3.08c0.21,0.66,0.29,1.36,0.53,2c0.13,0.33,0.49,0.57,0.74,0.85c0.14-0.07,0.28-0.14,0.42-0.2
			c-0.23-2.56-0.46-5.12-0.69-7.72c-10.21,0-20.29,0-30.49,0c-0.23,2.63-0.45,5.18-0.67,7.73c0.17,0.07,0.34,0.13,0.51,0.2
			c0.23-0.34,0.54-0.66,0.67-1.04c0.34-0.95,0.4-2.07,0.95-2.84c0.59-0.82,1.58-1.81,2.46-1.88
			C324.69,65.87,327.66,66.02,330.88,66.02z M489.2,63.93c-0.07,0.12-0.13,0.25-0.2,0.37c0.33,0.22,0.66,0.63,0.99,0.63
			c3.36-0.01,4.02,1.53,4,4.57c-0.03,7.22-0.01,14.44-0.01,21.67c0,0.53-0.01,1.06-0.07,1.59c-0.19,1.55-1.05,2.38-2.64,2.39
			c-0.42,0-0.87-0.07-1.27,0.03c-0.37,0.1-0.7,0.38-1.04,0.58c0.36,0.19,0.72,0.54,1.07,0.54c7.59,0.03,15.19,0.03,22.78,0.01
			c0.41,0,1.08-0.19,1.2-0.47c0.98-2.37,1.86-4.78,2.76-7.17c-0.17-0.12-0.33-0.24-0.5-0.36c-0.45,0.45-1.04,0.82-1.32,1.35
			c-1.77,3.37-4.43,4.96-8.31,4.58c-2-0.2-4.03-0.01-6.05-0.04c-1.87-0.03-2.23-0.4-2.24-2.28c-0.01-7.86-0.02-15.72,0-23.58
			c0.01-2.63,0.64-3.25,3.29-3.36c0.37-0.02,0.79,0.09,1.1-0.04c0.31-0.13,0.52-0.49,1.01-1C498.61,63.93,493.91,63.93,489.2,63.93z
			 M352.26,63.9c-0.1,0.17-0.21,0.35-0.31,0.52c0.38,0.19,0.75,0.49,1.15,0.54c3.17,0.37,3.77,1.02,3.78,4.27
			c0,7.28,0,14.56,0,21.84c0,3.5-0.44,3.95-3.86,4.12c-0.39,0.02-0.78,0.32-1.16,0.49c0.39,0.22,0.77,0.63,1.16,0.63
			c3.56,0.05,7.12,0.03,10.68,0.03c0.64,0,1.28,0.04,1.91-0.05c0.2-0.03,0.43-0.37,0.5-0.61c0.03-0.11-0.27-0.4-0.47-0.47
			c-0.23-0.09-0.52-0.03-0.79-0.04c-3.05-0.08-3.56-0.61-3.56-3.7c0-7.33,0-14.67,0-22c0-3.69,0.31-4.02,3.95-4.52
			c0.35-0.05,0.65-0.44,0.97-0.68c-0.09-0.12-0.18-0.25-0.27-0.37C361.38,63.9,356.82,63.9,352.26,63.9z"/>
		<path d="M245.55,125.1c0.34-1.26,0.64-2.53,1.03-3.78c2.7-8.67,10.12-14.09,19.37-14.26c3.98-0.08,7.82,0.56,11.59,1.76
			c1.1,0.35,2.18,0.69,2.87-0.71c0.07-0.14,0.46-0.11,0.82-0.18c0,3.58,0,7.07,0,11.06c-0.58-0.44-1.21-0.67-1.29-1.02
			c-2.41-11.26-17.66-10.76-23.33-4.83c-7.02,7.34-7.01,21.38,0.33,28.02c5.67,5.12,13.61,4.42,18.97,1.83
			c0.3-0.15,0.55-0.74,0.56-1.12c0.05-2.28,0.08-4.57,0-6.85c-0.1-2.88-1.23-3.98-4.14-4.13c-0.94-0.05-1.89-0.01-2.83-0.01
			c-0.09-0.16-0.18-0.32-0.28-0.48c0.33-0.26,0.66-0.73,0.99-0.73c4.94-0.05,9.88-0.04,14.82,0c0.29,0,0.57,0.42,0.85,0.64
			c-0.25,0.21-0.46,0.52-0.74,0.6c-3.23,0.97-3.54,1.38-3.54,4.82c0,2.07-0.06,4.15,0.02,6.22c0.04,1-0.23,1.62-1.21,1.89
			c-3.72,1-7.44,2.01-11.16,3.01c-0.35,0.09-0.7,0.19-1.04,0.29c-1.91,0-3.83,0-5.74,0c-0.33-0.11-0.66-0.27-1-0.33
			c-6.74-1.17-11.56-4.86-14.24-11.15c-0.78-1.82-1.12-3.83-1.67-5.75C245.55,128.29,245.55,126.69,245.55,125.1z"/>
		<path d="M245.55,63.85c2.55,0,5.1-0.07,7.65,0.04c0.74,0.03,1.64,0.43,2.15,0.96c7.39,7.78,14.72,15.6,22.07,23.42
			c0.2,0.22,0.44,0.41,0.85,0.78c0.04-0.73,0.08-1.23,0.08-1.73c0.01-6,0-12.01,0-18.01c0-3.48-0.67-4.16-4.15-4.35
			c-0.54-0.03-1.07-0.29-1.61-0.45c0.04-0.19,0.09-0.37,0.13-0.56c4.38,0,8.77,0,13.15,0c0.09,0.1,0.18,0.21,0.27,0.31
			c-0.32,0.23-0.62,0.64-0.96,0.67c-4.38,0.48-4.39,0.47-4.38,4.84c0,8.4,0,16.79,0,25.19c0,0.53,0,1.05,0,2.1
			c-0.93-0.5-1.69-0.7-2.15-1.19c-7.98-8.46-15.92-16.96-23.87-25.45c-0.46-0.49-0.95-0.94-1.62-1.61
			c-0.05,0.77-0.11,1.27-0.11,1.77c-0.01,6.69-0.01,13.39,0,20.08c0.01,3.6,0.78,4.38,4.38,4.48c0.11,0,0.23-0.03,0.32,0.01
			c0.38,0.17,0.75,0.36,1.12,0.54c-0.4,0.21-0.8,0.59-1.2,0.6c-3.4,0.05-6.8,0.02-10.2,0.03c-0.64,0-1.27,0.03-1.91,0.05
			c0-0.43,0-0.85,0-1.28c4.25,0.22,5.1-0.58,5.1-4.77c0-7.53-0.04-15.06,0.04-22.58c0.02-1.39-0.47-2.09-1.72-2.36
			c-1.13-0.24-2.28-0.4-3.42-0.59C245.55,64.49,245.55,64.17,245.55,63.85z"/>
		<path class="st0" d="M245.55,64.81c1.14,0.19,2.29,0.35,3.42,0.59c1.25,0.26,1.73,0.96,1.72,2.36
			c-0.08,7.53-0.04,15.06-0.04,22.58c0,4.2-0.85,4.99-5.1,4.77C245.55,85.01,245.55,74.91,245.55,64.81z"/>
		<path d="M351.46,38.65c-0.38,0.27-0.74,0.71-1.15,0.78c-1.36,0.23-1.67,1.11-1.67,2.29c0.01,3.13,0.03,6.26-0.01,9.39
			c-0.02,1.44,0.49,2.35,2.03,2.46c0.24,0.02,0.47,0.15,0.68,0.54c-2.68,0-5.35,0-8.07,0c0.06-0.19,0.08-0.36,0.12-0.37
			c2.95-0.54,2.59-1.25,2.64-3.76c0.02-0.95,0-1.9,0-2.97c-2.75,0-5.41,0-8.23,0c0,1.49-0.01,2.91,0,4.33
			c0.02,1.28,0.56,2.12,1.96,2.21c0.28,0.02,0.55,0.16,0.8,0.57c-2.66,0-5.33,0-8.02,0c0.04-0.19,0.04-0.28,0.06-0.28
			c2.63-0.37,2.71-2.2,2.61-4.29c-0.11-2.38-0.09-4.78-0.01-7.16c0.06-1.62-0.22-2.85-2.13-3.07c-0.28-0.03-0.51-0.44-0.76-0.67
			c2.76,0,5.53,0,8.29,0c-0.36,0.26-0.75,0.5-1.08,0.8c-0.57,0.52-1.48,1.03-1.57,1.64c-0.23,1.53-0.07,3.12-0.07,4.75
			c2.75,0,5.37,0,8.11,0c0-1.62,0.02-3.14-0.01-4.66c-0.01-0.99-0.53-1.51-1.52-1.72c-0.47-0.1-0.87-0.53-1.31-0.81
			C345.93,38.65,348.69,38.65,351.46,38.65z"/>
		<path d="M365.49,38.65c0.06,1.14,0.13,2.27,0.19,3.41c-0.14,0.08-0.28,0.15-0.42,0.23c-0.63-1.11-0.65-2.83-2.47-2.73
			c-1.37,0.08-2.75,0.01-4.25,0.01c0,2.11,0,4.14,0,6.41c2.08-0.63,4.81,1.49,6.18-1.9c0,1.57,0,3.14,0,5
			c-1.53-2.49-2.33-2.74-6.29-2.1c0,1.81-0.04,3.66,0.04,5.5c0.01,0.31,0.55,0.82,0.86,0.84c1.43,0.08,2.89,0.17,4.29-0.06
			c0.63-0.1,1.21-0.88,1.7-1.44c0.34-0.39,0.49-0.94,0.72-1.41c0.16,0.04,0.32,0.09,0.47,0.13c-0.1,1.21-0.2,2.42-0.3,3.66
			c-4.4,0-8.65,0-12.93,0c0.05-0.24,0.04-0.41,0.09-0.42c2.37-0.7,2.38-0.7,2.38-3.22c0-2.82-0.02-5.64,0.01-8.45
			c0.01-1.5-0.1-2.82-2.1-2.82c-0.2,0-0.41-0.41-0.61-0.63C357.2,38.65,361.34,38.65,365.49,38.65z"/>
		<path class="st0" d="M245.55,129.88c0.54,1.92,0.89,3.93,1.67,5.75c2.68,6.29,7.5,9.97,14.24,11.15c0.34,0.06,0.67,0.22,1,0.33
			c-5.64,0-11.27,0-16.91,0C245.55,141.36,245.55,135.62,245.55,129.88z"/>
		<path d="M330.08,38.65c0.14,1.13,0.27,2.26,0.46,3.79c-1.03-1.17-1.61-2.35-2.52-2.74c-0.99-0.42-2.29-0.09-3.68-0.09
			c0,1.91,0,3.8,0,5.69c0,1.91,0.08,3.83-0.02,5.73c-0.09,1.63,0.43,2.56,2.17,2.56c0.24,0,0.47,0.11,0.69,0.51
			c-2.77,0-5.54,0-8.79,0c0.64-0.29,0.88-0.5,1.12-0.49c1.73,0.04,2.27-0.85,2.24-2.49c-0.07-3.76-0.02-7.52-0.02-11.51
			c-1.29,0-2.61-0.31-3.64,0.09c-0.89,0.35-1.45,1.52-2.37,2.58c0-1.33,0-2.48,0-3.64C320.51,38.65,325.3,38.65,330.08,38.65z"/>
		<path class="st0" d="M343.16,38.65c0.43,0.28,0.84,0.71,1.31,0.81c0.99,0.21,1.51,0.73,1.52,1.72c0.02,1.52,0.01,3.05,0.01,4.66
			c-2.74,0-5.36,0-8.11,0c0-1.62-0.15-3.21,0.07-4.75c0.09-0.61,1-1.12,1.57-1.64c0.33-0.3,0.72-0.53,1.08-0.8
			C341.46,38.65,342.31,38.65,343.16,38.65z"/>
		<path d="M455.6,145.35c-0.35,0.25-0.7,0.71-1.05,0.71c-5.21,0.05-10.42,0.05-15.63,0c-0.33,0-0.66-0.51-0.99-0.77
			c0.1-0.13,0.19-0.26,0.29-0.39c0.73-0.04,1.47-0.04,2.19-0.14c2.5-0.32,3.49-1.42,3.53-4.05c0.05-3.4,0.01-6.8,0.01-10.21
			c0-5.37,0-10.74,0-16.11c0-4.22-0.8-5.06-4.96-5.19c-0.26-0.01-0.51-0.05-1.22-0.11c0.45-0.54,0.7-1.11,0.96-1.11
			c7.25-0.14,14.53-1.33,21.76,0.22c1.18,0.25,2.34,0.69,3.44,1.21c3.86,1.8,6.02,4.74,5.92,9.15c-0.1,4.32-2.43,7.09-6.1,8.96
			c-0.5,0.26-1.04,0.45-1.72,0.74c1.75,1.6,3.42,3.05,5,4.59c2.29,2.22,4.51,4.51,6.78,6.75c2.67,2.64,5.77,4.48,9.54,5.09
			c0.46,0.07,0.85,0.57,1.13,1.09c-6.2,0.39-11.95-0.14-16.53-4.95c-3.29-3.46-6.85-6.67-10.4-9.87c-0.64-0.58-1.79-0.76-2.72-0.83
			c-1.84-0.12-3.69-0.04-5.58-0.04c0,4.02-0.07,7.89,0.04,11.74c0.05,1.62,1.13,2.59,2.77,2.79c1.05,0.13,2.1,0.2,3.15,0.3
			C455.35,145.06,455.47,145.21,455.6,145.35z M449.12,128.55c2.78-0.18,5.39-0.13,7.91-0.56c4.09-0.71,6.21-3.06,6.9-7.09
			c1.03-6.01-1.49-10.24-6.99-11.29c-2.22-0.43-4.54-0.36-6.82-0.4c-0.33-0.01-0.97,0.64-0.97,0.99
			C449.1,116.14,449.12,122.09,449.12,128.55z"/>
		<path d="M398.81,144.92c1.32-0.1,2.64-0.12,3.94-0.3c2.28-0.32,3.24-1.26,3.28-3.55c0.1-7.22,0.11-14.45,0.13-21.68
			c0.01-2.02,0.01-4.04-0.11-6.05c-0.18-3.03-1.08-3.89-4.09-4.12c-0.58-0.05-1.17-0.01-2.09-0.35c0.3-0.31,0.6-0.9,0.91-0.9
			c9.4-0.03,18.81,0,28.21,0.02c0.04,0,0.09,0.06,0.28,0.2c0.16,2.61,0.32,5.35,0.52,8.55c-0.61-0.38-1.05-0.52-1.27-0.82
			c-0.2-0.27-0.15-0.71-0.22-1.08c-0.81-3.68-1.92-4.58-5.67-4.58c-3.71,0-7.41,0-11.23,0c0,4.99,0,9.8,0,14.88c1.1,0,2.24,0,3.38,0
			c2.34,0,4.68,0.01,7.01,0c2.37-0.01,3.19-0.74,3.69-3.07c0.11-0.53,0.51-0.99,0.78-1.48c0.22,0.55,0.6,1.11,0.62,1.66
			c0.06,2.92,0.05,5.85,0,8.77c-0.01,0.41-0.37,0.82-0.57,1.23c-0.27-0.37-0.7-0.71-0.79-1.13c-0.65-3.07-1.28-3.63-4.38-3.63
			c-3.18-0.01-6.37,0-9.62,0c-0.09,0.38-0.23,0.67-0.23,0.96c-0.01,4.09-0.05,8.18,0,12.28c0.03,2.23,0.77,2.97,3,3.01
			c3.35,0.06,6.7,0.07,10.04-0.01c3.53-0.08,4.86-1.32,6.22-5.46c0.23-0.7,0.21-1.71,1.59-1.22c-0.32,2.92-0.65,5.86-0.99,8.94
			c-0.48,0.04-0.94,0.1-1.39,0.1c-9.88,0.01-19.77,0.01-29.65,0C399.41,146.09,398.34,146.39,398.81,144.92z"/>
		<path d="M301.83,145.27c-0.32,0.27-0.63,0.78-0.95,0.79c-4.2,0.05-8.4,0.05-12.59,0.01c-0.29,0-0.58-0.4-0.87-0.61
			c0.29-0.21,0.57-0.61,0.86-0.61c2.63-0.03,4.02-1.53,4.88-3.84c3.91-10.48,7.86-20.95,11.75-31.44c0.21-0.57,0.03-1.29,0.03-2.17
			c1.44,0,2.97-0.09,4.47,0.06c0.43,0.04,0.97,0.72,1.16,1.22c3.98,10.34,7.92,20.7,11.88,31.06c0.3,0.79,0.63,1.58,0.95,2.36
			c0.91,2.2,2.77,2.75,4.95,2.75c0.09,0.13,0.17,0.26,0.26,0.39c-0.34,0.28-0.68,0.81-1.02,0.82c-4.73,0.05-9.46,0.05-14.19,0
			c-0.37,0-0.74-0.48-1.1-0.74c0.09-0.13,0.18-0.26,0.27-0.4c1.15-0.1,2.32-0.13,3.46-0.3c1.93-0.29,2.44-1.08,1.81-3.02
			c-0.66-2.02-1.47-3.98-2.22-5.96c-1.28-3.36-1.28-3.36-4.85-3.36c-3.35,0-6.7,0.03-10.04-0.02c-0.95-0.01-1.41,0.28-1.73,1.2
			c-0.89,2.61-1.94,5.16-2.85,7.76c-0.74,2.13-0.14,3.07,2.12,3.41c1.05,0.16,2.11,0.19,3.17,0.27
			C301.55,145.02,301.69,145.15,301.83,145.27z M306.84,112.45c-2.27,6.03-4.38,11.65-6.54,17.4c4.44,0,8.66,0,13.09,0
			C311.22,124.1,309.11,118.48,306.84,112.45z"/>
		<path d="M444.65,88.81c0-0.61,0-1.22,0-1.84c0-5.9,0-11.79,0-17.69c0-3.49-0.64-4.13-4.16-4.32c-0.62-0.03-1.63,0.34-1.37-1.05
			c4.38,0,8.72,0,13.51,0c-0.5,0.52-0.71,0.88-1.01,1.01c-0.32,0.14-0.73,0.03-1.1,0.06c-2.97,0.21-3.41,0.68-3.41,3.7
			c0,8.71,0,17.43,0,26.14c0,0.58,0,1.16,0,2.31c-0.99-0.59-1.76-0.86-2.26-1.38c-8.09-8.57-16.15-17.18-24.2-25.78
			c-0.32-0.34-0.54-0.76-0.81-1.15c-0.13,0.08-0.25,0.15-0.38,0.23c-0.03,0.39-0.1,0.78-0.1,1.17c-0.01,6.75-0.01,13.49-0.01,20.24
			c0,0.11,0,0.21,0,0.32c0.07,3.49,0.87,4.27,4.35,4.39c0.62,0.02,1.68-0.39,1.31,1.16c-4.11,0-8.24,0.01-12.37-0.03
			c-0.23,0-0.46-0.41-0.68-0.63c0.22-0.17,0.42-0.44,0.67-0.49c4.28-0.84,4.28-0.84,4.28-5.14c0-7.23,0-14.45,0-21.68
			c0-2.59-0.28-2.91-2.92-3.29c-0.42-0.06-0.87,0-1.26-0.15c-0.31-0.12-0.54-0.46-0.8-0.71c0.07-0.12,0.13-0.25,0.2-0.37
			c2.74,0,5.49-0.05,8.23,0.05c0.51,0.02,1.06,0.61,1.47,1.05c7.09,7.54,14.17,15.1,21.25,22.65c0.42,0.45,0.83,0.91,1.24,1.36
			C444.42,88.92,444.53,88.86,444.65,88.81z"/>
		<path d="M497.21,128.09c1.64-2.78,3.14-5.33,4.64-7.88c1.29-2.2,2.59-4.39,3.87-6.59c1.76-3.04,1.29-3.97-2.22-4.41
			c-0.21-0.03-0.42-0.04-1.23-0.12c0.61-0.56,0.93-1.11,1.26-1.12c4.04-0.06,8.08-0.05,12.12-0.01c0.29,0,0.57,0.41,0.86,0.63
			c-0.28,0.25-0.54,0.68-0.84,0.71c-3.52,0.33-5.54,2.56-7.18,5.41c-2.96,5.15-6.04,10.25-9.01,15.4c-0.4,0.69-0.61,1.58-0.63,2.38
			c-0.08,2.55-0.03,5.1-0.03,7.65c0.01,3.39,1.03,4.45,4.41,4.7c0.43,0.03,0.84,0.35,1.27,0.53c-0.43,0.24-0.85,0.69-1.28,0.69
			c-4.78,0.05-9.57,0.05-14.35,0c-0.46,0-0.92-0.4-1.37-0.61c0.06-0.16,0.12-0.32,0.19-0.49c1.09-0.14,2.2-0.21,3.27-0.42
			c1.38-0.27,2.41-1.12,2.48-2.55c0.16-3.28,0.17-6.58,0.19-9.87c0-0.37-0.32-0.77-0.55-1.12c-3.57-5.59-7.16-11.18-10.74-16.77
			c-1.68-2.63-3.6-4.91-7.08-5.02c-0.28-0.01-0.54-0.45-0.81-0.7c0.3-0.2,0.6-0.58,0.91-0.58c4.78-0.04,9.57-0.04,14.35,0
			c0.32,0,0.64,0.35,0.95,0.53c-0.31,0.24-0.61,0.67-0.94,0.7c-3.98,0.34-3.84,1.49-1.96,4.34
			C490.89,118.26,493.95,123.05,497.21,128.09z"/>
		<path d="M388.76,97.05c-5.5-0.04-10.38-1.72-14.19-5.78c-6.58-7-5.17-18.79,2.83-24.53c6.41-4.59,16.06-4.83,22.76-0.67
			c11.54,7.17,9.01,23.17-1.28,28.55C395.7,96.27,392.34,97.08,388.76,97.05z M375.35,79.1c0.08,3.95,0.88,7.25,2.89,10.2
			c5.41,7.93,17.42,8.06,22.2,0.25c3.43-5.62,3.06-13.84-0.87-19.12c-4.69-6.29-14.11-7.56-19.57-2.55
			C376.62,70.99,375.47,75.07,375.35,79.1z"/>
		<path d="M363.93,137.23c-1.04,2.72-2.05,5.44-3.16,8.13c-0.14,0.35-0.78,0.7-1.19,0.7c-8.72,0.04-17.44,0.04-26.15,0
			c-0.35,0-0.7-0.4-1.04-0.61c0.34-0.21,0.66-0.48,1.02-0.62c0.23-0.09,0.52-0.02,0.79-0.02c3.05-0.03,4.01-0.97,4.01-4.02
			c0.01-8.98,0.01-17.97,0-26.95c0-3.35-0.97-4.32-4.33-4.57c-0.48-0.04-0.92-0.49-1.38-0.75c0.46-0.2,0.92-0.57,1.39-0.58
			c4.94-0.04,9.89-0.04,14.83,0.01c0.43,0,0.85,0.45,1.28,0.69c-0.45,0.22-0.89,0.62-1.35,0.64c-4.95,0.15-5.23,0.42-5.23,5.3
			c0,8.82,0,17.65,0,26.47c0,2.15,0.45,2.65,2.58,2.68c2.71,0.04,5.42-0.01,8.13,0.01c2.73,0.02,4.81-1.12,6.3-3.38
			c0.59-0.89,1.12-1.81,1.77-2.65c0.32-0.41,0.87-0.64,1.32-0.95C363.67,136.93,363.8,137.08,363.93,137.23z"/>
		<path d="M366.29,107.92c3.4,0,6.85,0,10.29,0c1.91,0,3.83-0.04,5.74,0.03c0.44,0.02,0.86,0.45,1.29,0.69
			c-0.45,0.22-0.88,0.57-1.35,0.64c-0.94,0.14-1.91,0.09-2.86,0.18c-1.43,0.12-2.19,1-2.37,2.36c-0.1,0.73-0.1,1.48-0.1,2.23
			c-0.01,8.88-0.01,17.75,0,26.63c0,2.62,0.44,3.06,3.05,3.07c2.5,0.01,5-0.02,7.49,0.01c2.76,0.04,4.95-0.99,6.49-3.32
			c0.61-0.93,1.17-1.91,1.86-2.78c0.31-0.39,0.88-0.56,1.34-0.84c0.11,0.13,0.22,0.25,0.34,0.38c-1.06,2.76-2.09,5.53-3.21,8.27
			c-0.12,0.3-0.72,0.59-1.1,0.59c-8.77,0.03-17.54,0.03-26.31,0c-0.33,0-0.66-0.43-0.99-0.66c0.36-0.2,0.72-0.57,1.07-0.56
			c4.24,0.16,4.9-1.21,4.87-5.15c-0.05-8.45-0.01-16.9-0.02-25.35c0-3.86-0.8-4.74-4.69-5.01
			C366.18,109.26,365.86,108.97,366.29,107.92z"/>
		<path d="M301.18,63.55c0.02-0.01,0.07-0.04,0.12-0.04c4.06-0.19,4.07-0.19,5.54,3.66c3.09,8.07,6.18,16.14,9.25,24.22
			c0.77,2.02,1.63,3.86,4.25,3.82c0.2,0,0.41,0.35,0.62,0.53c-0.24,0.2-0.49,0.58-0.73,0.58c-4.09,0.04-8.18,0.04-12.27,0
			c-0.25,0-0.5-0.37-0.75-0.57c0.26-0.19,0.5-0.51,0.78-0.54c0.79-0.1,1.6-0.01,2.38-0.13c1.45-0.21,2.02-0.96,1.55-2.34
			c-0.87-2.56-1.88-5.07-2.89-7.57c-0.12-0.29-0.61-0.59-0.94-0.59c-3.61-0.04-7.22-0.05-10.84,0.01c-0.38,0.01-0.95,0.44-1.1,0.81
			c-0.9,2.21-1.74,4.44-2.52,6.7c-0.65,1.86-0.11,2.72,1.81,3c0.68,0.1,1.39,0.01,2.06,0.12c0.26,0.04,0.47,0.39,0.7,0.61
			c-0.22,0.18-0.43,0.5-0.65,0.5c-3.56,0.03-7.12,0.03-10.68,0c-0.21,0-0.41-0.35-0.61-0.54c0.19-0.2,0.39-0.58,0.58-0.57
			c2.87,0.12,3.78-1.94,4.59-4.08c3.19-8.49,6.36-16.98,9.51-25.48C301.16,65.04,301.09,64.33,301.18,63.55z M297.25,82.3
			c3.64,0,7.11,0,10.76,0c-1.81-4.73-3.56-9.3-5.44-14.23C300.71,73.04,299,77.63,297.25,82.3z"/>
		<path d="M487.22,96.33c-4.3,0-8.59,0.01-12.89-0.02c-0.28,0-0.55-0.32-0.82-0.5c0.28-0.22,0.54-0.58,0.85-0.62
			c0.78-0.11,1.6-0.01,2.38-0.13c1.4-0.21,1.95-1.06,1.48-2.39c-0.89-2.5-1.85-4.97-2.85-7.43c-0.13-0.32-0.68-0.68-1.04-0.68
			c-3.56-0.05-7.12-0.06-10.68,0.01c-0.42,0.01-1.04,0.48-1.21,0.89c-0.92,2.2-1.76,4.44-2.55,6.69c-0.63,1.82-0.04,2.68,1.89,2.93
			c0.63,0.08,1.28,0,1.91,0.11c0.33,0.06,0.61,0.37,0.92,0.57c-0.31,0.19-0.62,0.54-0.93,0.55c-2.44,0.05-4.89,0.03-7.33,0.03
			c-1.21,0-2.43,0-4.12,0c0.5-0.61,0.74-1.14,0.97-1.13c2.77,0.08,3.7-1.86,4.49-3.98c3.03-8.1,6.07-16.19,9.07-24.29
			c0.39-1.04,0.61-2.15,0.97-3.45c0.85,0,2.08-0.13,3.26,0.06c0.48,0.08,1.05,0.76,1.25,1.3c3.37,8.71,6.68,17.43,10.01,26.15
			c0.25,0.64,0.51,1.28,0.8,1.91c0.62,1.38,1.65,2.15,3.19,2.27c0.41,0.03,0.8,0.4,1.19,0.61
			C487.36,95.97,487.29,96.15,487.22,96.33z M463.57,82.29c3.68,0,7.14,0,10.75,0c-1.8-4.7-3.54-9.25-5.45-14.22
			C467,73.08,465.31,77.63,463.57,82.29z"/>
		<path d="M330.88,66.02c-3.21,0-6.19-0.15-9.13,0.09c-0.88,0.07-1.87,1.06-2.46,1.88c-0.55,0.78-0.61,1.9-0.95,2.84
			c-0.14,0.38-0.44,0.69-0.67,1.04c-0.17-0.07-0.34-0.13-0.51-0.2c0.22-2.55,0.44-5.11,0.67-7.73c10.21,0,20.28,0,30.49,0
			c0.23,2.59,0.46,5.15,0.69,7.72c-0.14,0.07-0.28,0.14-0.42,0.2c-0.25-0.28-0.62-0.52-0.74-0.85c-0.25-0.64-0.33-1.34-0.53-2
			c-0.76-2.44-1.59-3.05-4.15-3.08c-2.59-0.02-5.18,0-7.91,0c0,0.78,0,1.36,0,1.93c0,7.6,0,15.2,0,22.8c0,3.7,0.78,4.48,4.47,4.5
			c0.32,0,0.66-0.06,0.95,0.03c0.24,0.08,0.41,0.36,0.61,0.54c-0.2,0.19-0.36,0.44-0.6,0.56c-0.17,0.09-0.42,0.03-0.63,0.03
			c-4.62,0-9.25,0.02-13.87-0.02c-0.41,0-0.81-0.38-1.21-0.58c0.42-0.19,0.82-0.42,1.25-0.55c0.29-0.08,0.63-0.01,0.95-0.02
			c2.72-0.06,3.66-0.92,3.69-3.64c0.05-4.2,0.02-8.4,0.02-12.59C330.88,74.69,330.88,70.44,330.88,66.02z"/>
		<path d="M489.2,63.93c4.7,0,9.41,0,14.55,0c-0.49,0.5-0.7,0.87-1.01,1c-0.32,0.13-0.73,0.02-1.1,0.04
			c-2.65,0.12-3.28,0.73-3.29,3.36c-0.02,7.86-0.01,15.72,0,23.58c0,1.88,0.37,2.25,2.24,2.28c2.02,0.03,4.05-0.15,6.05,0.04
			c3.88,0.38,6.53-1.2,8.31-4.58c0.28-0.53,0.87-0.9,1.32-1.35c0.17,0.12,0.33,0.24,0.5,0.36c-0.91,2.4-1.78,4.81-2.76,7.17
			c-0.12,0.28-0.78,0.47-1.2,0.47c-7.59,0.03-15.19,0.03-22.78-0.01c-0.36,0-0.72-0.35-1.07-0.54c0.35-0.2,0.67-0.49,1.04-0.58
			c0.4-0.1,0.84-0.03,1.27-0.03c1.59-0.01,2.46-0.84,2.64-2.39c0.06-0.52,0.07-1.06,0.07-1.59c0-7.22-0.02-14.44,0.01-21.67
			c0.01-3.05-0.64-4.58-4-4.57c-0.33,0-0.66-0.41-0.99-0.63C489.07,64.18,489.14,64.06,489.2,63.93z"/>
		<path d="M352.26,63.9c4.56,0,9.12,0,13.68,0c0.09,0.12,0.18,0.25,0.27,0.37c-0.32,0.23-0.62,0.63-0.97,0.68
			c-3.64,0.5-3.95,0.83-3.95,4.52c0,7.33,0,14.67,0,22c0,3.08,0.52,3.62,3.56,3.7c0.27,0.01,0.55-0.05,0.79,0.04
			c0.2,0.07,0.5,0.36,0.47,0.47c-0.07,0.24-0.3,0.58-0.5,0.61c-0.63,0.08-1.27,0.05-1.91,0.05c-3.56,0-7.12,0.02-10.68-0.03
			c-0.39-0.01-0.78-0.41-1.16-0.63c0.39-0.17,0.77-0.47,1.16-0.49c3.42-0.17,3.86-0.62,3.86-4.12c0-7.28,0-14.56,0-21.84
			c0-3.25-0.6-3.9-3.78-4.27c-0.4-0.05-0.77-0.35-1.15-0.54C352.05,64.24,352.15,64.07,352.26,63.9z"/>
		<path class="st0" d="M449.12,128.55c0-6.46-0.02-12.41,0.04-18.35c0-0.35,0.64-1,0.97-0.99c2.28,0.04,4.6-0.03,6.82,0.4
			c5.5,1.06,8.02,5.29,6.99,11.29c-0.69,4.03-2.81,6.38-6.9,7.09C454.51,128.42,451.9,128.37,449.12,128.55z"/>
		<path class="st0" d="M306.84,112.45c2.27,6.03,4.38,11.64,6.55,17.4c-4.43,0-8.65,0-13.09,0
			C302.46,124.1,304.58,118.48,306.84,112.45z"/>
		<path class="st0" d="M375.35,79.1c0.12-4.03,1.26-8.11,4.65-11.22c5.46-5.01,14.88-3.75,19.57,2.55
			c3.93,5.27,4.31,13.5,0.87,19.12c-4.78,7.81-16.79,7.68-22.2-0.25C376.24,86.36,375.43,83.05,375.35,79.1z"/>
		<path class="st0" d="M297.25,82.3c1.75-4.67,3.46-9.26,5.32-14.23c1.88,4.93,3.63,9.5,5.44,14.23
			C304.36,82.3,300.89,82.3,297.25,82.3z"/>
		<path class="st0" d="M463.57,82.29c1.74-4.66,3.43-9.2,5.3-14.22c1.9,4.97,3.64,9.52,5.45,14.22
			C470.71,82.29,467.25,82.29,463.57,82.29z"/>
	</g>
</g>
<path d="M678.33,138.16c-6.55-0.26-11.91-2.05-16.1-5.38c-0.8-0.64-2.71-2.54-3.34-3.35c-1.7-2.14-2.85-4.22-3.62-6.52
	c-2.37-7.1-1.15-16.42,3.49-26.65c3.97-8.76,10.1-17.44,20.8-29.47c1.58-1.77,6.27-6.95,6.3-6.95c0.01,0-0.24,0.44-0.57,0.98
	c-2.78,4.66-5.16,10.15-6.46,14.9c-2.08,7.62-1.83,14.16,0.74,19.24c1.77,3.49,4.81,6.52,8.22,8.19c5.98,2.93,14.73,3.17,25.41,0.71
	c0.74-0.17,37.19-9.85,81.01-21.51c43.82-11.66,79.68-21.19,79.69-21.18c0.01,0.01-101.81,43.58-154.67,66.19
	c-8.37,3.58-10.61,4.48-14.55,5.86C694.62,136.76,685.61,138.45,678.33,138.16L678.33,138.16z"/>
<g>
	<g>
		<path class="st1" d="M1067.41,66.49h17.56v7.23h-17.56v19.17h-7.62V48.28h26.47v7.23h-18.79v10.97H1067.41z M1102.14,93.66
			c-1.42,0-2.84-0.26-4.2-0.77c-1.36-0.52-2.52-1.23-3.55-2.26c-1.03-0.97-1.81-2.19-2.45-3.55c-0.65-1.42-0.9-3.03-0.9-4.84V62.68
			h7.62v17.49c0,2.26,0.52,3.87,1.55,4.91c1.03,1.03,2.52,1.48,4.45,1.48c0.97,0,1.81-0.19,2.58-0.58c0.77-0.39,1.36-0.84,1.87-1.29
			c0.58-0.52,1.1-1.1,1.55-1.87V62.68h7.68v30.21h-7.17V88.5c-0.65,0.97-1.36,1.87-2.26,2.58c-0.71,0.65-1.68,1.23-2.78,1.74
			C1104.98,93.41,1103.69,93.66,1102.14,93.66z M1123.38,62.68h5.94V53.7h7.68v8.97h9.04v6.91h-9.1v12.2c0,0.97,0.13,1.68,0.32,2.32
			c0.19,0.58,0.52,1.1,0.9,1.48s0.77,0.65,1.29,0.77c0.45,0.13,0.97,0.19,1.48,0.19c0.45,0,0.84-0.06,1.23-0.13
			c0.39-0.13,0.71-0.19,1.03-0.39l0.97-0.58l2.78,6.26c-0.58,0.39-1.23,0.71-2,1.03c-0.65,0.26-1.42,0.45-2.26,0.65
			c-0.9,0.19-1.87,0.32-2.97,0.32c-1.48,0-2.84-0.26-4.13-0.77c-1.23-0.52-2.32-1.23-3.23-2.19c-0.9-0.9-1.61-2.07-2.19-3.36
			c-0.52-1.29-0.77-2.78-0.77-4.39V69.58h-5.94v-6.91H1123.38z M1162.63,93.66c-1.42,0-2.84-0.26-4.2-0.77
			c-1.36-0.52-2.52-1.23-3.55-2.26c-1.03-0.97-1.81-2.19-2.45-3.55c-0.65-1.42-0.9-3.03-0.9-4.84V62.68h7.68v17.49
			c0,2.26,0.52,3.87,1.55,4.91c1.03,1.03,2.52,1.48,4.45,1.48c0.97,0,1.81-0.19,2.58-0.58c0.77-0.39,1.36-0.84,1.87-1.29
			c0.58-0.52,1.1-1.1,1.55-1.87V62.68h7.68v30.21h-7.17V88.5c-0.65,0.97-1.36,1.87-2.26,2.58c-0.71,0.65-1.68,1.23-2.78,1.74
			C1165.47,93.41,1164.18,93.66,1162.63,93.66z M1201.24,61.9c0.71,0,1.36,0.06,2,0.13c0.65,0.13,1.16,0.26,1.68,0.32
			c0.58,0.19,1.1,0.32,1.61,0.45l-2.71,6.91c-0.26-0.06-0.58-0.19-0.97-0.32c-0.32-0.06-0.71-0.19-1.16-0.26
			c-0.45-0.06-0.97-0.13-1.48-0.13c-1.16,0-2.19,0.19-3.03,0.65c-0.84,0.45-1.55,0.9-2.07,1.42c-0.65,0.58-1.16,1.29-1.68,2.07
			v19.75h-7.62V62.68h7.29v4.39c0.58-0.9,1.23-1.81,2-2.58c0.71-0.65,1.55-1.23,2.58-1.81C1198.65,62.23,1199.88,61.9,1201.24,61.9z
			 M1221.76,61.9c2.07,0,4.07,0.39,5.87,1.16c1.87,0.77,3.49,1.87,4.84,3.23s2.45,3.03,3.29,4.97c0.77,1.94,1.23,4.07,1.23,6.39
			v1.23c0,0.52,0,1.03-0.06,1.68h-22.53c0.13,0.71,0.39,1.36,0.9,2.13c0.45,0.71,1.03,1.36,1.81,2c0.71,0.58,1.55,1.1,2.52,1.48
			c0.97,0.39,2.07,0.58,3.23,0.58c1.29,0,2.45-0.13,3.49-0.45c1.03-0.32,1.87-0.65,2.58-1.03c0.84-0.45,1.55-0.97,2.19-1.55
			l3.81,5.75c-0.97,0.77-2.07,1.55-3.29,2.19c-1.03,0.58-2.32,1.03-3.81,1.48c-1.48,0.45-3.16,0.65-4.97,0.65
			c-2.32,0-4.45-0.39-6.39-1.23c-2-0.84-3.68-1.94-5.16-3.36c-1.48-1.42-2.58-3.1-3.42-5.04s-1.23-4-1.23-6.2s0.39-4.26,1.16-6.2
			s1.81-3.62,3.16-5.04c1.36-1.42,2.97-2.58,4.84-3.36C1217.63,62.35,1219.63,61.9,1221.76,61.9L1221.76,61.9z M1229.38,75.01
			c-0.06-0.65-0.19-1.29-0.52-2.07c-0.32-0.71-0.77-1.42-1.42-2c-0.58-0.58-1.42-1.1-2.32-1.48c-0.97-0.39-2.07-0.58-3.29-0.58
			s-2.32,0.19-3.16,0.58c-0.9,0.39-1.68,0.9-2.26,1.48c-0.58,0.58-1.1,1.29-1.42,2c-0.32,0.71-0.52,1.42-0.52,2.13h14.91V75.01z
			 M1059.79,108.58h7.62v39.77h18.98v7.23h-26.66v-47H1059.79z M1103.89,124.59c2.07,0,4.07,0.39,5.87,1.16
			c1.87,0.77,3.49,1.81,4.84,3.23c1.36,1.36,2.45,3.03,3.29,4.97c0.77,1.94,1.23,4.07,1.23,6.39v1.23c0,0.52,0,1.03-0.06,1.68
			h-22.53c0.13,0.71,0.45,1.36,0.9,2.13c0.45,0.71,1.03,1.36,1.81,2c0.71,0.58,1.55,1.1,2.52,1.48c0.97,0.39,2.07,0.58,3.23,0.58
			c1.29,0,2.45-0.13,3.49-0.45c1.03-0.32,1.87-0.65,2.58-1.03c0.77-0.45,1.55-0.97,2.19-1.55l3.81,5.75
			c-0.97,0.77-2.07,1.55-3.29,2.19c-1.03,0.58-2.32,1.03-3.81,1.48s-3.16,0.65-4.97,0.65c-2.32,0-4.45-0.39-6.39-1.23
			c-2-0.84-3.68-1.94-5.16-3.36c-1.48-1.42-2.58-3.1-3.42-5.04s-1.23-4-1.23-6.2c0-2.19,0.39-4.26,1.16-6.2s1.81-3.62,3.16-5.04
			s2.97-2.58,4.84-3.36C1099.69,124.97,1101.69,124.59,1103.89,124.59L1103.89,124.59z M1111.44,137.63
			c-0.06-0.65-0.19-1.29-0.52-2.07c-0.32-0.71-0.77-1.42-1.42-2c-0.65-0.65-1.42-1.1-2.32-1.48c-0.97-0.39-2.07-0.58-3.29-0.58
			s-2.26,0.19-3.16,0.58c-0.9,0.39-1.68,0.84-2.26,1.48c-0.58,0.58-1.1,1.23-1.42,2c-0.32,0.71-0.52,1.42-0.52,2.13h14.91V137.63z
			 M1154.11,125.3v30.21h-7.1v-3.94c-0.58,0.9-1.23,1.68-2.13,2.39c-0.71,0.58-1.68,1.16-2.84,1.61c-1.16,0.52-2.58,0.71-4.2,0.71
			c-1.94,0-3.81-0.39-5.62-1.16c-1.81-0.77-3.36-1.87-4.71-3.29s-2.39-3.1-3.23-4.97c-0.77-1.94-1.23-4.07-1.23-6.39
			c0-2.32,0.39-4.45,1.23-6.39c0.77-1.94,1.87-3.62,3.23-4.97c1.36-1.42,2.91-2.52,4.71-3.29c1.81-0.77,3.68-1.16,5.62-1.16
			c1.55,0,2.97,0.26,4.13,0.71c1.16,0.52,2.13,1.03,2.84,1.61c0.84,0.71,1.55,1.48,2.19,2.39v-3.94h7.1V125.3z M1146.43,135.88
			c-0.45-0.77-1.03-1.48-1.74-2.13c-0.58-0.52-1.36-0.97-2.19-1.42c-0.9-0.45-1.94-0.65-3.16-0.65c-1.29,0-2.45,0.26-3.49,0.65
			c-1.03,0.45-1.94,1.03-2.65,1.87c-0.71,0.77-1.29,1.68-1.68,2.78c-0.39,1.03-0.58,2.19-0.58,3.42c0,1.23,0.19,2.39,0.58,3.42
			s0.9,2,1.68,2.78c0.71,0.77,1.61,1.42,2.65,1.87c1.03,0.45,2.19,0.65,3.49,0.65c1.23,0,2.32-0.19,3.16-0.65
			c0.9-0.45,1.61-0.9,2.19-1.48c0.71-0.58,1.23-1.29,1.74-2.13V135.88z M1176.25,124.59c0.65,0,1.36,0.06,2,0.13
			c0.65,0.13,1.16,0.19,1.68,0.32c0.58,0.19,1.1,0.32,1.61,0.45l-2.65,6.91c-0.26-0.06-0.58-0.19-0.97-0.32
			c-0.32-0.06-0.71-0.19-1.16-0.26s-0.97-0.13-1.48-0.13c-1.16,0-2.19,0.19-3.03,0.65s-1.55,0.9-2.07,1.42
			c-0.65,0.58-1.16,1.29-1.68,2.07v19.75h-7.62v-30.21h7.23v4.39c0.52-0.9,1.23-1.81,2-2.52c0.65-0.65,1.55-1.23,2.58-1.81
			C1173.67,124.84,1174.83,124.59,1176.25,124.59L1176.25,124.59z M1201.56,124.59c1.42,0,2.84,0.26,4.2,0.77
			c1.36,0.52,2.52,1.23,3.55,2.26c1.03,0.97,1.81,2.19,2.45,3.55c0.58,1.42,0.9,3.03,0.9,4.84v19.56h-7.68v-17.62
			c0-2.19-0.58-3.74-1.74-4.71c-1.16-0.97-2.58-1.48-4.26-1.48c-0.97,0-1.81,0.19-2.58,0.65s-1.36,0.9-1.87,1.36
			c-0.58,0.58-1.1,1.16-1.55,1.94v19.95h-7.55v-30.21h7.1v4.39c0.58-0.9,1.23-1.81,2.13-2.52c0.71-0.65,1.68-1.23,2.78-1.81
			C1198.59,124.84,1199.94,124.59,1201.56,124.59L1201.56,124.59z"/>
	</g>
	<path d="M1033.78,48.28v35.63h-34.02v31.37h-34.34v31.25h-35.63v9.04h44.61v-31.31h34.41V92.89h34.02V48.28H1033.78z"/>
</g>
<path id="path3023" class="st1" d="M45.62,156.35h12.59v12.59H45.62V156.35z M86.95,168.94h31.46v-12.59H86.95V168.94z
	 M16.82,117.72h62.04v-12.59H16.82V117.72z M66.3,168.94h12.59V125.8H66.3V168.94z M58.18,71.73V51.71L21.51,97.04h16.21
	L58.18,71.73L58.18,71.73z M88.82,13.9l-1.87,2.32v20.01L98.62,21.8L88.82,13.9L88.82,13.9z M107.63,105.12v12.59h21.57v-12.59
	H107.63z M99.54,33.5L86.95,49.05v99.21h12.59V33.5L99.54,33.5z M66.3,97.04h12.59V26.18L66.3,41.72V97.04L66.3,97.04z"/>
</svg>
