<?xml version="1.0" encoding="utf-8"?>
<!-- Generator: Adobe Illustrator 26.3.1, SVG Export Plug-In . SVG Version: 6.00 Build 0)  -->
<svg version="1.1" id="Layer_1" xmlns="http://www.w3.org/2000/svg" xmlns:xlink="http://www.w3.org/1999/xlink" x="0px" y="0px"
	 viewBox="0 0 24 39.9" style="enable-background:new 0 0 24 39.9;" xml:space="preserve">
<g>
	<path d="M12,1c6.1,0,11,4.9,11,11c0,4.4-2.7,8.4-6.8,10.1l-0.8,0.4l0.3,0.9l5,15.5H3.4l5-15.5l0.3-0.9l-0.8-0.4
		C3.7,20.4,1,16.4,1,12C1,5.9,5.9,1,12,1 M12,0C5.4,0,0,5.4,0,12c0,5,3,9.3,7.4,11.1L2,39.9h20l-5.4-16.8C21,21.3,24,17,24,12
		C24,5.4,18.6,0,12,0L12,0z"/>
</g>
</svg>
