<?xml version="1.0" encoding="utf-8"?>
<!-- Generator: Adobe Illustrator 26.3.1, SVG Export Plug-In . SVG Version: 6.00 Build 0)  -->
<svg version="1.1" id="Layer_1" xmlns="http://www.w3.org/2000/svg" xmlns:xlink="http://www.w3.org/1999/xlink" x="0px" y="0px"
	 viewBox="0 0 5.4 8.7" style="enable-background:new 0 0 5.4 8.7;" xml:space="preserve">
<style type="text/css">
	.st0{stroke:#000000;stroke-width:0.3;stroke-miterlimit:10;}
</style>
<g>
	<path class="st0" d="M2.7,0.6c1.2,0,2.2,1,2.2,2.2c0,0.9-0.5,1.7-1.4,2L3.4,4.9L3.5,5l1,3.1H1L2,5l0.1-0.2L1.9,4.8
		c-0.8-0.3-1.4-1.1-1.4-2C0.5,1.5,1.5,0.6,2.7,0.6 M2.7,0.4c-1.3,0-2.4,1.1-2.4,2.4c0,1,0.6,1.9,1.5,2.2L0.7,8.3h4L3.6,5
		c0.9-0.4,1.5-1.2,1.5-2.2C5.1,1.4,4,0.4,2.7,0.4L2.7,0.4z"/>
</g>
</svg>
