<?xml version="1.0" encoding="utf-8"?>
<!-- Generator: Adobe Illustrator 26.3.1, SVG Export Plug-In . SVG Version: 6.00 Build 0)  -->
<svg version="1.1" id="Layer_1" xmlns="http://www.w3.org/2000/svg" xmlns:xlink="http://www.w3.org/1999/xlink" x="0px" y="0px"
	 viewBox="0 0 50 39.4" style="enable-background:new 0 0 50 39.4;" xml:space="preserve">
<style type="text/css">
	.st0{fill:none;stroke:#000000;stroke-width:0.9633;stroke-miterlimit:10;}
</style>
<g>
	<path d="M64,0.6c6.1,0,11,4.9,11,11c0,4.4-2.7,8.4-6.8,10.1l-0.8,0.4l0.3,0.9l5,15.5H55.4l5-15.5l0.3-0.9l-0.8-0.4
		C55.7,20,53,16,53,11.6C53,5.5,57.9,0.6,64,0.6 M64-0.4c-6.6,0-12,5.4-12,12c0,5,3,9.3,7.4,11.1L54,39.5h20l-5.4-16.8
		C73,20.8,76,16.6,76,11.6C76,5,70.6-0.4,64-0.4L64-0.4z"/>
</g>
<rect x="0.5" y="0.5" class="st0" width="49" height="38.4"/>
<polyline class="st0" points="0.5,0.5 25,22.2 49.5,0.5 "/>
</svg>
