<?xml version="1.0" encoding="utf-8"?>
<!-- Generator: Adobe Illustrator 26.3.1, SVG Export Plug-In . SVG Version: 6.00 Build 0)  -->
<svg version="1.1" id="Layer_1" xmlns="http://www.w3.org/2000/svg" xmlns:xlink="http://www.w3.org/1999/xlink" x="0px" y="0px"
	 viewBox="0 0 12.3 8.4" style="enable-background:new 0 0 12.3 8.4;" xml:space="preserve">
<style type="text/css">
	.st0{stroke:#000000;stroke-width:0.3;stroke-miterlimit:10;}
	.st1{fill:none;stroke:#000000;stroke-width:0.45;stroke-miterlimit:10;}
</style>
<g>
	<path class="st0" d="M-2.9,0.4c1.2,0,2.2,1,2.2,2.2c0,0.9-0.5,1.7-1.4,2l-0.2,0.1l0.1,0.2l1,3.1h-3.5l1-3.1l0.1-0.2l-0.2-0.1
		c-0.8-0.3-1.4-1.1-1.4-2C-5.1,1.4-4.1,0.4-2.9,0.4 M-2.9,0.2c-1.3,0-2.4,1.1-2.4,2.4c0,1,0.6,1.9,1.5,2.2l-1.1,3.4h4L-2,4.8
		c0.9-0.4,1.5-1.2,1.5-2.2C-0.5,1.3-1.6,0.2-2.9,0.2L-2.9,0.2z"/>
</g>
<rect x="0.3" y="0.3" class="st1" width="11.7" height="7.9"/>
<polyline class="st1" points="0.3,0.3 6.1,4.2 11.9,0.3 "/>
</svg>
