<?xml version="1.0" encoding="utf-8"?>
<!-- Generator: Adobe Illustrator 26.3.1, SVG Export Plug-In . SVG Version: 6.00 Build 0)  -->
<svg version="1.1" id="Layer_1" xmlns="http://www.w3.org/2000/svg" xmlns:xlink="http://www.w3.org/1999/xlink" x="0px" y="0px"
	 viewBox="0 0 1151.7 266.4" style="enable-background:new 0 0 1151.7 266.4;" xml:space="preserve">
<path d="M259.7,0c-22.9,0-44.4,5.8-63.2,16C177.6,5.8,156.1,0,133.2,0C59.8,0,0,59.8,0,133.2c0,73.5,59.8,133.2,133.2,133.2
	c22.9,0,44.4-5.8,63.2-16c18.8,10.2,40.4,16,63.2,16c73.5,0,133.2-59.8,133.2-133.2S333.1,0,259.7,0z M133.2,253.4
	C66.9,253.4,13,199.5,13,133.2C13,66.9,66.9,13,133.2,13c17.9,0,34.9,3.9,50.2,11c-34.4,24.1-57,64.1-57,109.2s22.6,85.1,57,109.2
	C168.2,249.5,151.1,253.4,133.2,253.4z M196.4,31c34.2,21.2,57,59.1,57,102.2s-22.8,81-57,102.2c-34.2-21.2-57-59.1-57-102.2
	C139.5,90.1,162.3,52.2,196.4,31z M259.7,253.4c-17.9,0-34.9-4-50.2-11c34.4-24.1,57-64.1,57-109.2s-22.6-85.1-57-109.2
	c15.3-7.1,32.3-11,50.2-11c66.3,0,120.2,53.9,120.2,120.2C379.9,199.5,326,253.4,259.7,253.4z"/>
<g>
	<g>
		<path d="M482.4,67.3l-2.5,1.4l-1-8.6c-2-1.5-5.8-2.3-13-2.3h-5c-1.7,0-2.1,2.6-2.1,8.5v40.3c0,1.7,0.8,2.4,2.5,2.4h6.3l-1,2.4h-21
			l0.9-2.4h5.1c1.4,0,1.8-1.4,1.8-4.7v-37c0-9-0.8-9.5-3.4-9.5h-3.7c-7.2,0-11,0.8-13,2.3l-1,7.1l-2.5,1.4l0.7-14.2h2.6l0.4,0.9
			h44.8l0.6-0.9h2.6L482.4,67.3z"/>
		<path d="M500.6,109.2h6l-0.8,2.2H487l0.8-2.2h4.9c1.3,0,1.7-1.4,1.7-4.7V60.2c0-3.4-0.7-4.9-4.3-4.9c-1.5,0-3.7,0.4-5.4,0.8v-1.8
			c7.7-1.8,11.4-3,14.4-5.4l1,0.9c-0.2,0.6-0.8,2.1-0.8,5.8v23.6h1c5.3-5,12.2-7.9,17.6-7.9c8.2,0,12.2,3.8,12.2,13.3v23
			c0,0.9,0.2,1.6,1.4,1.6h6l-0.8,2.2h-18.8l0.8-2.2h4.9c1.3,0,1.7-1.4,1.7-4.7V85.6c0-5.8-2.1-10.6-9.7-10.6
			c-4.9,0-11.1,1.9-16.3,7.3v25.4C499.2,108.5,499.4,109.2,500.6,109.2z"/>
		<path d="M537.9,93c0-12.1,10.6-21.7,21.8-21.7c8.8,0,16.2,4.4,18.1,11.3l-1.4,1.3h-32.1c-0.6,2.1-1,4.5-1,7.1c0,11,6.1,18,16.9,18
			c8.6,0,14.8-4.2,17.5-7l1.1,1c-5.5,6.7-12.5,9.4-19.1,9.4C544.6,112.4,537.9,103.4,537.9,93z M572.4,81.9c-1.9-4.2-6-8.2-13.4-8.2
			c-6.2,0-11.2,2.8-13.8,8.2H572.4z"/>
		<path d="M605.4,84.4c0-18.2,14.5-29.9,29.4-29.9c16.4,0,28.3,12.7,28.3,27.5c0,15.6-11.3,30.4-29.4,30.4
			C617.2,112.4,605.4,99.8,605.4,84.4z M634.2,109.9c16.2,0,23-13.1,23-26.3c0-12.8-9.1-26.5-22.9-26.5c-16.7,0-23,13.8-23,26.3
			C611.3,97.6,620.3,109.9,634.2,109.9z"/>
		<path d="M680.9,109.2h8.3l-0.8,2.2h-21.1l0.8-2.2h4.9c1.3,0,1.7-1.4,1.7-4.7V74.7h-7.9l0.8-2.4h7.1v-2.2c0-10,7.4-17.9,16.4-17.9
			c4,0,8.6,0.6,8.6,2c0,1.2-1.6,3.2-3.1,3.2s-5.4-1.6-10.1-1.6c-4.4,0-7,2.3-7,10.4v6.1H690l-0.8,2.4h-9.7v33
			C679.5,108.5,679.7,109.2,680.9,109.2z"/>
		<path d="M696.8,109.2h4.9c1.3,0,1.7-1.4,1.7-4.7V74.7h-7.9l0.8-2.4h7.1v-0.5c0-11,7.8-19.5,19.4-19.5c6.3,0,13.1,2.9,13.1,6.9
			c0,2-2.2,2.9-3.5,2.9c-3.8,0-2.1-8-12.2-8c-9.1,0-12,6.6-12,16.6v1.7h10.5l-0.8,2.4h-9.7v33c0,0.9,0.2,1.6,1.4,1.6h8.3l-0.8,2.2
			H696L696.8,109.2z M722.8,74.7c5.8-1.5,9.2-2.7,13-4.7h0.8c-0.1,1.2-0.1,3.4-0.1,6v31.7c0,0.9,0.2,1.6,1.4,1.6h5.9l-0.8,2.2h-18.7
			l0.8-2.2h4.9c1.3,0,1.7-1.4,1.7-4.7V80.4c0-3.4-0.6-4.9-3.5-4.9c-1.5,0-4.5,0.7-5.4,1.1L722.8,74.7L722.8,74.7z"/>
		<path d="M767.3,112.4c-13.8,0-21.3-8.5-21.3-19.4c0-12.1,10.1-21.7,23-21.7c6.8,0,13.8,2.9,13.8,7c0,1.5-1.8,2.6-2.9,2.6
			c-3.4,0-4.1-7.2-12.1-7.2c-9,0-16.4,6-16.4,17.3c0,11,6.1,18,16.9,18c7.1,0,11.9-3.3,15-6.1l1,1
			C779.7,109.8,773.2,112.4,767.3,112.4z"/>
		<path d="M789.6,93c0-12.1,10.6-21.7,21.8-21.7c8.8,0,16.2,4.4,18.1,11.3l-1.4,1.3h-32.1c-0.6,2.1-1,4.5-1,7.1c0,11,6.1,18,16.9,18
			c8.6,0,14.8-4.2,17.5-7l1.1,1c-5.5,6.7-12.5,9.4-19.1,9.4C796.4,112.4,789.6,103.4,789.6,93z M824.1,81.9c-1.9-4.2-6-8.2-13.4-8.2
			c-6.2,0-11.2,2.8-13.8,8.2H824.1z"/>
		<path d="M856.7,93.1c0-12.1,9.4-21.8,21.3-21.8c12,0,21,7.9,21,19.5c0,11.8-9.1,21.6-21,21.6C866.1,112.4,856.7,105.9,856.7,93.1z
			 M878,110.2c8.5,0,15.5-6.2,15.5-18.1c0-11.6-7.4-18.6-15.5-18.6c-7.8,0-15.8,5-15.8,18.6C862.1,103.5,869.2,110.2,878,110.2z"/>
		<path d="M914.6,109.2h8.3l-0.8,2.2H901l0.8-2.2h4.9c1.3,0,1.7-1.4,1.7-4.7V74.7h-7.9l0.8-2.4h7.1v-2.2c0-10,7.4-17.9,16.4-17.9
			c4,0,8.6,0.6,8.6,2c0,1.2-1.6,3.2-3.1,3.2s-5.4-1.6-10.1-1.6c-4.4,0-7,2.3-7,10.4v6.1h10.5l-0.8,2.4h-9.7v33
			C913.2,108.5,913.4,109.2,914.6,109.2z"/>
		<path d="M433.4,198.6v-63h39.5v7.7h-30v19.9h24.8v7.6h-24.8v27.7H433.4z"/>
		<path d="M490.3,199.7c-5.4,0-9.7-1.7-12.7-5c-3.1-3.4-4.6-8.4-4.6-15V154h9.5v24.7c0,8.6,3.5,13,10.6,13c3.5,0,6.5-1.3,8.7-3.8
			c2.3-2.5,3.4-6.1,3.4-10.8v-23h9.5v44.6h-8.5l-0.7-7.8c-1.4,2.8-3.4,4.9-6.1,6.5C496.8,198.9,493.8,199.7,490.3,199.7z"/>
		<path d="M542,198.6c-4.4,0-7.9-1.1-10.4-3.2c-2.6-2.1-3.9-5.9-3.9-11.4V162h-7.7v-8h7.7l1.2-11.3h8.4V154h12.6v8h-12.6v22.1
			c0,2.5,0.5,4.2,1.6,5.1c1,0.9,2.9,1.4,5.5,1.4h5.1v8.1H542z"/>
		<path d="M572.5,199.7c-5.4,0-9.7-1.7-12.7-5c-3.1-3.4-4.6-8.4-4.6-15V154h9.5v24.7c0,8.6,3.5,13,10.6,13c3.5,0,6.5-1.3,8.7-3.8
			c2.3-2.5,3.4-6.1,3.4-10.8v-23h9.5v44.6h-8.5l-0.7-7.8c-1.4,2.8-3.4,4.9-6.1,6.5C579.1,198.9,576,199.7,572.5,199.7z"/>
		<path d="M603.8,198.6V154h8.5l0.8,8.5c1.6-2.9,3.7-5.3,6.5-7s6.2-2.6,10.1-2.6v10h-2.6c-2.6,0-5,0.4-7.1,1.3
			c-2.1,0.9-3.7,2.3-5,4.4c-1.2,2.1-1.8,4.9-1.8,8.6v21.4L603.8,198.6L603.8,198.6z"/>
		<path d="M652.5,199.7c-4.4,0-8.3-1-11.7-2.9c-3.4-1.9-6-4.7-8-8.1c-1.9-3.5-2.9-7.5-2.9-12.1c0-4.7,1-8.8,2.8-12.3
			c1.9-3.5,4.5-6.3,7.9-8.3c3.4-2,7.3-3,11.8-3c4.4,0,8.2,1,11.4,2.9c3.2,1.9,5.8,4.5,7.6,7.8s2.7,6.8,2.7,10.7c0,0.6,0,1.2,0,1.9
			c0,0.7-0.1,1.5-0.1,2.3h-34.7c0.3,4.3,1.7,7.6,4.3,9.9c2.5,2.2,5.5,3.4,8.9,3.4c2.7,0,5-0.6,6.8-1.8c1.8-1.2,3.2-2.9,4.1-5h9.5
			c-1.2,4.2-3.6,7.7-7.2,10.5C662.2,198.3,657.8,199.7,652.5,199.7z M652.5,160.8c-3.2,0-6,0.9-8.5,2.8s-4,4.7-4.5,8.5h25.2
			c-0.2-3.5-1.4-6.2-3.7-8.3C658.8,161.8,656,160.8,652.5,160.8z"/>
		<path d="M707.3,198.6v-63h9.5v63H707.3z"/>
		<path d="M723.8,198.6V154h8.5l0.7,7.8c1.4-2.8,3.4-4.9,6.1-6.5c2.7-1.6,5.7-2.4,9.2-2.4c5.4,0,9.6,1.7,12.7,5
			c3.1,3.4,4.6,8.4,4.6,15v25.7h-9.5V174c0-8.6-3.5-13-10.6-13c-3.5,0-6.5,1.3-8.8,3.8c-2.3,2.5-3.5,6.1-3.5,10.8v23H723.8z"/>
		<path d="M789.3,198.6c-4.4,0-7.9-1.1-10.4-3.2c-2.6-2.1-3.9-5.9-3.9-11.4V162h-7.7v-8h7.7l1.2-11.3h8.4V154h12.6v8h-12.6v22.1
			c0,2.5,0.5,4.2,1.6,5.1c1,0.9,2.9,1.4,5.5,1.4h5.1v8.1H789.3z"/>
		<path d="M822.5,199.7c-4.4,0-8.3-1-11.7-2.9c-3.4-1.9-6-4.7-8-8.1c-1.9-3.5-2.9-7.5-2.9-12.1c0-4.7,1-8.8,2.8-12.3
			c1.9-3.5,4.5-6.3,7.9-8.3c3.4-2,7.3-3,11.8-3c4.4,0,8.2,1,11.4,2.9c3.2,1.9,5.8,4.5,7.6,7.8s2.7,6.8,2.7,10.7c0,0.6,0,1.2,0,1.9
			c0,0.7-0.1,1.5-0.1,2.3h-34.7c0.3,4.3,1.7,7.6,4.3,9.9c2.5,2.2,5.5,3.4,8.9,3.4c2.7,0,5-0.6,6.8-1.8c1.8-1.2,3.2-2.9,4.1-5h9.5
			c-1.2,4.2-3.6,7.7-7.2,10.5C832.2,198.3,827.7,199.7,822.5,199.7z M822.5,160.8c-3.2,0-6,0.9-8.5,2.8s-4,4.7-4.5,8.5h25.2
			c-0.2-3.5-1.4-6.2-3.7-8.3C828.7,161.8,825.9,160.8,822.5,160.8z"/>
		<path d="M848.7,198.6V154h8.5l0.8,8.5c1.6-2.9,3.7-5.3,6.5-7s6.2-2.6,10.1-2.6v10h-2.6c-2.6,0-5,0.4-7.1,1.3
			c-2.1,0.9-3.7,2.3-5,4.4c-1.2,2.1-1.8,4.9-1.8,8.6v21.4L848.7,198.6L848.7,198.6z"/>
		<path d="M894.5,199.7c-3.8,0-6.9-0.6-9.4-1.9c-2.5-1.3-4.3-2.9-5.5-5s-1.8-4.3-1.8-6.8c0-4.3,1.7-7.7,5-10.3
			c3.4-2.5,8.2-3.8,14.4-3.8H909v-0.8c0-3.5-0.9-6.1-2.8-7.8s-4.3-2.6-7.3-2.6c-2.6,0-4.9,0.6-6.9,1.9c-2,1.3-3.1,3.2-3.5,5.7h-9.5
			c0.3-3.2,1.4-6,3.3-8.3c1.9-2.3,4.3-4.1,7.2-5.3c2.9-1.2,6.1-1.8,9.6-1.8c6.2,0,11.1,1.6,14.5,4.9c3.4,3.3,5.1,7.7,5.1,13.4v27.4
			h-8.3l-0.8-7.6c-1.3,2.5-3.1,4.5-5.5,6.2C901.5,198.9,898.4,199.7,894.5,199.7z M896.3,192c2.6,0,4.8-0.6,6.5-1.8
			c1.8-1.2,3.2-2.9,4.1-4.9c1-2,1.6-4.3,1.8-6.8h-10.6c-3.8,0-6.5,0.7-8,2c-1.6,1.3-2.4,3-2.4,4.9c0,2,0.8,3.6,2.3,4.8
			S893.7,192,896.3,192z"/>
		<path d="M945.4,199.7c-4.4,0-8.3-1-11.8-3c-3.5-2-6.2-4.7-8.1-8.2c-2-3.5-2.9-7.6-2.9-12.2c0-4.6,1-8.7,2.9-12.2
			c2-3.5,4.7-6.2,8.1-8.2s7.4-3,11.8-3c5.5,0,10.2,1.4,13.9,4.3s6.2,6.8,7.2,11.7h-10c-0.6-2.5-1.9-4.4-4-5.8
			c-2-1.4-4.4-2.1-7.2-2.1c-2.3,0-4.5,0.6-6.5,1.8s-3.6,2.9-4.8,5.1s-1.8,5-1.8,8.3c0,3.3,0.6,6.1,1.8,8.3s2.8,4,4.8,5.2
			c2,1.2,4.1,1.8,6.5,1.8c2.8,0,5.2-0.7,7.2-2.1c2-1.4,3.4-3.3,4-5.9h10c-1,4.8-3.4,8.7-7.2,11.6
			C955.6,198.3,950.9,199.7,945.4,199.7z"/>
		<path d="M990.2,198.6c-4.4,0-7.9-1.1-10.4-3.2c-2.6-2.1-3.9-5.9-3.9-11.4V162h-7.7v-8h7.7l1.2-11.3h8.4V154h12.6v8h-12.6v22.1
			c0,2.5,0.5,4.2,1.6,5.1c1.1,0.9,2.9,1.4,5.4,1.4h5.1v8.1H990.2z"/>
		<path d="M1007.9,145.6c-1.8,0-3.3-0.6-4.5-1.7s-1.8-2.5-1.8-4.2c0-1.7,0.6-3.1,1.8-4.2c1.2-1.1,2.7-1.7,4.5-1.7
			c1.8,0,3.3,0.6,4.5,1.7c1.2,1.1,1.8,2.5,1.8,4.2c0,1.7-0.6,3.1-1.8,4.2S1009.7,145.6,1007.9,145.6z M1003.1,198.6V154h9.5v44.6
			H1003.1z"/>
		<path d="M1040.7,199.7c-4.3,0-8.1-1-11.5-2.9s-6.1-4.7-8.1-8.2c-2-3.5-3-7.6-3-12.3c0-4.7,1-8.8,3-12.3c2-3.5,4.7-6.2,8.2-8.2
			s7.2-2.9,11.4-2.9c4.3,0,8.1,1,11.5,2.9c3.4,1.9,6.1,4.7,8.1,8.2c2,3.5,3,7.6,3,12.3s-1,8.8-3,12.3s-4.7,6.2-8.2,8.2
			S1045,199.7,1040.7,199.7z M1040.7,191.5c2.3,0,4.4-0.6,6.3-1.7s3.5-2.8,4.7-5.1c1.2-2.2,1.8-5.1,1.8-8.4c0-3.4-0.6-6.2-1.8-8.4
			s-2.7-3.9-4.7-5.1c-1.9-1.1-4.1-1.7-6.3-1.7c-2.3,0-4.4,0.6-6.3,1.7c-1.9,1.1-3.5,2.8-4.7,5.1s-1.8,5.1-1.8,8.4s0.6,6.2,1.8,8.4
			s2.8,3.9,4.7,5.1C1036.3,191,1038.4,191.5,1040.7,191.5z"/>
		<path d="M1068.3,198.6V154h8.5l0.7,7.8c1.4-2.8,3.4-4.9,6.1-6.5c2.7-1.6,5.7-2.4,9.2-2.4c5.4,0,9.6,1.7,12.7,5
			c3.1,3.4,4.6,8.4,4.6,15v25.7h-9.4V174c0-8.6-3.5-13-10.6-13c-3.5,0-6.5,1.3-8.8,3.8c-2.3,2.5-3.5,6.1-3.5,10.8v23H1068.3z"/>
		<path d="M1133.9,199.7c-5.6,0-10.3-1.4-13.9-4.1c-3.7-2.8-5.8-6.4-6.3-11h9.6c0.5,2,1.6,3.8,3.4,5.3c1.8,1.5,4.2,2.2,7.1,2.2
			c2.9,0,5-0.6,6.3-1.8c1.3-1.2,2-2.6,2-4.1c0-2.3-0.9-3.8-2.8-4.6c-1.8-0.8-4.4-1.5-7.6-2.2c-2.5-0.5-5-1.3-7.5-2.2
			c-2.5-0.9-4.6-2.2-6.2-3.8c-1.7-1.6-2.5-3.9-2.5-6.7c0-3.9,1.5-7.2,4.5-9.8c3-2.6,7.2-3.9,12.6-3.9c5,0,9,1.2,12.1,3.6
			c3.1,2.4,4.9,5.8,5.4,10.2h-9.2c-0.3-1.9-1.2-3.4-2.7-4.5c-1.5-1.1-3.4-1.6-5.9-1.6c-2.4,0-4.3,0.5-5.6,1.5s-2,2.3-2,3.8
			s0.9,2.8,2.8,3.7c1.8,0.9,4.2,1.7,7.2,2.4c3,0.7,5.8,1.4,8.3,2.3c2.6,0.9,4.6,2.1,6.2,3.8c1.6,1.7,2.3,4.1,2.3,7.4
			c0.1,4.1-1.5,7.5-4.7,10.2C1143.7,198.4,1139.4,199.7,1133.9,199.7z"/>
	</g>
</g>
</svg>
